<?xml version="1.0" encoding="UTF-8"?>
<svg id="Camada_2" data-name="Camada 2" xmlns="http://www.w3.org/2000/svg" viewBox="0 0 290.16 203.22">
  <defs>
    <style>
      .cls-1 {
        fill: #d5eb2d;
        stroke-width: 0px;
      }
    </style>
  </defs>
  <g id="Camada_2-2" data-name="Camada 2">
    <g id="Camada_1-2" data-name="Camada 1-2">
      <g id="n1hVty">
        <g>
          <path class="cls-1" d="M272.55,10.87c-62.54,62.77-125.23,125.37-187.84,188.06-2.92,2.92-6.05,4.34-10.18,4.29-10.82-.13-21.65-.04-32.48-.04-10.83,0-21.66.04-32.48-.02-7.27-.04-9.55-2.37-9.55-9.56,0-13.16,0-26.32,0-39.48,0-6.75,2.54-9.4,9.32-9.43,14.99-.07,29.98.1,44.97-.17,2.47-.05,5.54-1.25,7.28-2.98C106.95,96.43,152.19,51.22,197.32,5.9,201.25,1.96,205.24-.02,210.89.06c19.15.26,38.31-.01,57.47.23,2.43.03,6.48,1.5,6.86,3.02.54,2.21-.88,5.77-2.67,7.56h0Z"/>
          <path class="cls-1" d="M290.14,193.61c-.02,7.14-2.42,9.48-9.62,9.49h-35.46c-11.82,0-23.65-.1-35.47.05-4.26.05-7.66-1.16-10.71-4.24-12.62-12.8-25.41-25.44-38.08-38.19-5.44-5.48-5.54-11.2-.23-16.6,7.81-7.96,15.71-15.83,23.68-23.63,5.77-5.65,10.79-5.62,16.46-.01,7.11,7.01,14.02,14.24,21.32,21.05,1.82,1.69,4.81,2.93,7.29,2.97,16.81.26,33.63.12,50.44.16,7.95,0,10.38,2.5,10.38,10.49.01,12.82.03,25.64,0,38.46h0Z"/>
          <path class="cls-1" d="M123,59.33c-7.82,7.95-15.69,15.85-23.65,23.65-5.5,5.38-10.58,5.44-16.14.06-7.19-6.94-14.24-14.01-21.18-21.19-2.38-2.48-4.86-3.4-8.31-3.35-14.65.19-29.31.09-43.96.06C2.41,58.55.02,56.08,0,48.61c0-12.99,0-25.97,0-38.96C0,2.52,2.39.1,9.59.06c10.82-.05,21.64-.01,32.46-.01S63.37.14,74.02,0c4.28-.06,7.64,1.26,10.68,4.34,12.63,12.8,25.42,25.43,38.11,38.17,5.86,5.88,5.94,10.98.19,16.82Z"/>
        </g>
      </g>
    </g>
  </g>
</svg>