<?xml version="1.0" encoding="UTF-8"?>
<svg id="Camada_2" data-name="Camada 2" xmlns="http://www.w3.org/2000/svg" viewBox="0 0 940.37 203.28">
  <defs>
    <style>
      .cls-1 {
        fill: #d5eb2d;
        stroke-width: 0px;
      }
    </style>
  </defs>
  <g id="Camada_1-2" data-name="Camada 1">
    <g id="n1hVty">
      <g>
        <path class="cls-1" d="M272.55,10.87c-62.54,62.77-125.23,125.37-187.84,188.06-2.92,2.92-6.05,4.34-10.18,4.29-10.82-.13-21.65-.04-32.48-.04-10.83-.01-21.66.04-32.48-.02-7.27-.04-9.55-2.37-9.55-9.56-.01-13.16-.01-26.32.01-39.48,0-6.75,2.54-9.4,9.32-9.43,14.99-.07,29.98.1,44.97-.17,2.47-.05,5.54-1.25,7.28-2.98C106.95,96.43,152.19,51.22,197.32,5.9,201.25,1.96,205.24-.02,210.89.06c19.15.26,38.31-.01,57.47.23,2.43.03,6.48,1.5,6.86,3.02.54,2.21-.88,5.77-2.67,7.56Z"/>
        <path class="cls-1" d="M940.37,155.74c-.01,12.17,0,24.33,0,36.5-.01,9.12-1.88,10.96-11.2,10.97-28.33.01-56.66,0-84.99,0s-56.66-.06-84.99.07c-5.01.02-8.86-1.46-12.42-5.06-22.98-23.2-46.07-46.31-69.26-69.31-3.82-3.79-5.64-7.86-5.52-13.26.24-11.16.03-22.32.08-33.49.03-7.01,2.68-9.63,9.65-9.65,13.16-.02,26.33-.02,39.49,0,6.85.02,10.09,2.58,9.14,9.28-2.03,14.38,2.89,24.93,14.07,34.05,9.38,7.65,17.23,17.15,26.06,25.5,1.91,1.81,5.11,3.17,7.73,3.18,50.32.18,100.65.13,150.97.14,9.1,0,11.19,2.08,11.19,11.08Z"/>
        <path class="cls-1" d="M459,47.54c-.02,8.77-2.26,11.05-10.87,11.06-38.66.01-77.32.04-115.98-.07-3.6,0-6.26.84-8.74,3.56-4.48,4.92-9.23,9.62-14.11,14.15-2.66,2.47-3.78,5.1-3.72,8.75.19,12.16.07,24.32.1,36.49.02,6.63-2.35,9.24-8.83,9.27-13.67.06-27.33.07-40.99,0-5.72-.03-8.65-2.91-8.67-8.62-.07-19.5-.2-39,.15-58.49.06-3.14,1.71-6.98,3.91-9.24,16.5-16.94,33.21-33.7,50.2-50.17,2.44-2.36,6.72-3.9,10.18-3.95,22.99-.34,45.99-.18,68.99-.18v-.04c22.66,0,45.32,0,67.99.01,8.01,0,10.36,2.35,10.38,10.47.04,12.34.02,24.67.01,37Z"/>
        <path class="cls-1" d="M516.41,140.23c-.05,2.99-1.63,6.64-3.73,8.79-16.65,17.04-33.49,33.9-50.58,50.5-2.21,2.14-6.2,3.38-9.38,3.42-22.99.29-45.99.16-68.99.16s-46,.01-68.99,0c-7.13,0-9.56-2.42-9.57-9.6-.02-12.83-.03-25.66,0-38.49.02-7.91,2.48-10.35,10.54-10.35,38.66-.03,77.33-.06,115.99.05,3.6.01,6.24-.87,8.73-3.57,5.64-6.12,13.91-11,16.82-18.13,2.98-7.31.89-16.7.97-25.19.05-5.5-.08-11,.03-16.49.13-6.2,2.78-8.8,8.97-8.82,13.5-.05,27-.04,40.5.01,6.35.02,8.79,2.32,8.82,8.72.09,19.66.2,39.33-.13,58.99Z"/>
        <path class="cls-1" d="M715.13,48.87c-.02,7.09-2.6,9.71-9.64,9.71-73.66.02-147.33,0-220.99-.01-6.76,0-9.39-2.68-9.4-9.37-.02-13.16,0-26.33.03-39.5.02-7.22,2.33-9.61,9.56-9.62,36.67-.03,73.33-.01,110-.01v-.02c37,0,74,0,111,.01,6.81,0,9.41,2.51,9.43,9.31.04,13.16.05,26.33.01,39.5Z"/>
        <path class="cls-1" d="M940.37,48.97c0,6.96-2.58,9.62-9.65,9.63-31.98.03-63.96.01-95.94.01-31.32.01-62.63.01-93.95,0-8.51,0-10.74-2.2-10.74-10.54V10.59c0-8.46,2-10.52,10.65-10.53,33.98-.05,67.96-.03,101.94-.04h84.95c11.33,0,12.73,1.38,12.73,12.47,0,12.16.01,24.32.01,36.48Z"/>
        <path class="cls-1" d="M290.14,193.61c-.02,7.14-2.42,9.48-9.62,9.49h-35.46c-11.82,0-23.65-.1-35.47.05-4.26.05-7.66-1.16-10.71-4.24-12.62-12.8-25.41-25.44-38.08-38.19-5.44-5.48-5.54-11.2-.23-16.6,7.81-7.96,15.71-15.83,23.68-23.63,5.77-5.65,10.79-5.62,16.46-.01,7.11,7.01,14.02,14.24,21.32,21.05,1.82,1.69,4.81,2.93,7.29,2.97,16.81.26,33.63.12,50.44.16,7.95.01,10.38,2.5,10.38,10.49.01,12.82.03,25.64,0,38.46Z"/>
        <path class="cls-1" d="M624.28,193.79c0,6.82-2.48,9.35-9.32,9.37-13.48.05-26.97,0-40.46-.07-5.96-.03-8.47-2.53-8.48-8.52-.04-18.98-.01-37.97-.01-56.96s-.01-37.3.01-55.95c.01-6.59,2.49-9.13,8.94-9.14,13.32-.03,26.64-.03,39.97,0,6.76.02,9.35,2.57,9.35,9.36.03,37.3.02,74.61,0,111.91Z"/>
        <path class="cls-1" d="M123,59.33c-7.82,7.95-15.69,15.85-23.65,23.65-5.5,5.38-10.58,5.44-16.14.06-7.19-6.94-14.24-14.01-21.18-21.19-2.38-2.48-4.86-3.4-8.31-3.35-14.65.19-29.31.09-43.96.06C2.41,58.55.02,56.08.01,48.61,0,35.62,0,22.64,0,9.65.01,2.52,2.39.1,9.59.06c10.82-.05,21.64-.01,32.46-.01S63.37.14,74.02,0c4.28-.06,7.64,1.26,10.68,4.34,12.63,12.8,25.42,25.43,38.11,38.17,5.86,5.88,5.94,10.98.19,16.82Z"/>
      </g>
    </g>
  </g>
</svg>